<svg width="100" height="100" viewBox="0 0 100 100" fill="none" xmlns="http://www.w3.org/2000/svg">
  <rect width="100" height="100" rx="20" fill="#2D6A4F"/>
  <path d="M50 20C35.5 20 30 35 30 50C30 65 40 80 50 80C60 80 70 65 70 50C70 35 64.5 20 50 20Z" fill="#40916C"/>
  <circle cx="50" cy="50" r="15" fill="#95D5B2"/>
  <path d="M50 35C45 35 42.5 40 42.5 45C42.5 50 45 55 50 55C55 55 57.5 50 57.5 45C57.5 40 55 35 50 35Z" fill="#D8F3DC"/>
  <path d="M30 50C30 45 40 40 50 40C60 40 70 45 70 50" stroke="#74C69D" stroke-width="2"/>
</svg>